<svg xmlns="http://www.w3.org/2000/svg" style="display:none" aria-hidden="true">
  

  

  
  <symbol id="myika-16-read" viewBox="0 0 16 16">
    <g fill="none" stroke="currentColor" stroke-width="1.5" stroke-linecap="round" stroke-linejoin="round">
      <path d="M2 8s2-4 6-4 6 4 6 4-2 4-6 4-6-4-6-4z"></path>
      <circle cx="8" cy="8" r="1.5"></circle>
    </g>
  </symbol>

  
  <symbol id="myika-16-write" viewBox="0 0 16 16">
    <g fill="none" stroke="currentColor" stroke-width="1.5" stroke-linecap="round" stroke-linejoin="round">
      <path d="M3 13l2-.5L13.2 4.3a1.4 1.4 0 0 0-2-2L3 10.5 2.5 13"></path>
      <path d="M10 4.5l2 2"></path>
    </g>
  </symbol>

  
  <symbol id="myika-16-exec" viewBox="0 0 16 16">
    <g fill="none" stroke="currentColor" stroke-width="1.5" stroke-linecap="round" stroke-linejoin="round">
      <path d="M4 3.2v9.6L13 8z"></path>
    </g>
  </symbol>
  <symbol id="myika-16-exec-fill" viewBox="0 0 16 16">
    <path fill="currentColor" stroke="currentColor" stroke-width="1.5" stroke-linejoin="round" d="M4.5 3.5v9L13 8z"></path>
  </symbol>

  
  <symbol id="myika-16-search" viewBox="0 0 16 16">
    <g fill="none" stroke="currentColor" stroke-width="1.5" stroke-linecap="round" stroke-linejoin="round">
      <circle cx="7" cy="7" r="4"></circle>
      <path d="M10 10l3.5 3.5"></path>
    </g>
  </symbol>

  
  <symbol id="myika-16-asset" viewBox="0 0 16 16">
    <g fill="none" stroke="currentColor" stroke-width="1.5" stroke-linecap="round" stroke-linejoin="round">
      <path d="M8 1.5L13.5 4.5v6L8 13.5 2.5 10.5v-6z"></path>
      <path d="M2.7 4.7L8 7.5l5.3-2.8M8 7.5v6"></path>
    </g>
  </symbol>

  
  <symbol id="myika-16-code" viewBox="0 0 16 16">
    <g fill="none" stroke="currentColor" stroke-width="1.5" stroke-linecap="round" stroke-linejoin="round">
      <path d="M5 4.5L1.5 8 5 11.5"></path>
      <path d="M11 4.5L14.5 8 11 11.5"></path>
      <path d="M9.5 3.5l-3 9"></path>
    </g>
  </symbol>

  
  <symbol id="myika-16-plugin" viewBox="0 0 16 16">
    <g fill="none" stroke="currentColor" stroke-width="1.5" stroke-linecap="round" stroke-linejoin="round">
      <path d="M6 1.5v3M10 1.5v3"></path>
      <path d="M3.5 4.5h9v3a4.5 4.5 0 0 1-4.5 4.5h0A4.5 4.5 0 0 1 3.5 7.5z"></path>
      <path d="M8 12v2.5"></path>
    </g>
  </symbol>

  
  <symbol id="myika-16-settings" viewBox="0 0 16 16">
    <g fill="none" stroke="currentColor" stroke-width="1.5" stroke-linecap="round" stroke-linejoin="round">
      <path d="M8 1.5l1.2 1.6 2 .2.4 2 1.6 1.2-1 1.7 0 2-1.7 1-.4 2-2 .2L8 14.5l-1.2-1.6-2-.2-.4-2-1.6-1.2 1-1.7 0-2 1.7-1 .4-2 2-.2z"></path>
      <circle cx="8" cy="8" r="2"></circle>
    </g>
  </symbol>

  
  <symbol id="myika-16-chat" viewBox="0 0 16 16">
    <g fill="none" stroke="currentColor" stroke-width="1.5" stroke-linecap="round" stroke-linejoin="round">
      <path d="M2 6.5a4 4 0 0 1 4-4h4a4 4 0 0 1 4 4V9a4 4 0 0 1-4 4H6.5L3 14.5V6.5z"></path>
      <path d="M5.5 7.5h5"></path>
    </g>
  </symbol>

  
  <symbol id="myika-16-plan" viewBox="0 0 16 16">
    <g fill="none" stroke="currentColor" stroke-width="1.5" stroke-linecap="round" stroke-linejoin="round">
      <path d="M2.5 4l1.5 1.5 2-2.5"></path>
      <path d="M8 4h6"></path>
      <path d="M2.5 8.5h2"></path>
      <path d="M8 8.5h6"></path>
      <path d="M2.5 13h2"></path>
      <path d="M8 13h6"></path>
    </g>
  </symbol>

  
  <symbol id="myika-16-diff" viewBox="0 0 16 16">
    <g fill="none" stroke="currentColor" stroke-width="1.5" stroke-linecap="round" stroke-linejoin="round">
      <path d="M2 4.5h2"></path><path d="M6 4.5h6"></path>
      <path d="M2 8h2"></path><path d="M6 8h4"></path>
      <path d="M2 11.5h2"></path><path d="M6 11.5h7"></path>
      <path d="M3 7v3"></path>
    </g>
  </symbol>

  
  <symbol id="myika-16-folder" viewBox="0 0 16 16">
    <g fill="none" stroke="currentColor" stroke-width="1.5" stroke-linecap="round" stroke-linejoin="round">
      <path d="M1.5 4.5a1 1 0 0 1 1-1h3.5l1.5 1.5h6a1 1 0 0 1 1 1V12a1 1 0 0 1-1 1h-11a1 1 0 0 1-1-1z"></path>
    </g>
  </symbol>

  
  <symbol id="myika-16-approve" viewBox="0 0 16 16">
    <g fill="none" stroke="currentColor" stroke-width="1.5" stroke-linecap="round" stroke-linejoin="round">
      <path d="M3 8.5l3 3 7-7.5"></path>
    </g>
  </symbol>
  <symbol id="myika-16-approve-fill" viewBox="0 0 16 16">
    <circle cx="8" cy="8" r="6.5" fill="currentColor"></circle>
    <path d="M5 8.2l2.2 2.2 4-4.4" fill="none" stroke="#07120C" stroke-width="1.6" stroke-linecap="round" stroke-linejoin="round"></path>
  </symbol>

  
  <symbol id="myika-16-deny" viewBox="0 0 16 16">
    <g fill="none" stroke="currentColor" stroke-width="1.5" stroke-linecap="round" stroke-linejoin="round">
      <path d="M4 4l8 8M12 4l-8 8"></path>
    </g>
  </symbol>
  <symbol id="myika-16-deny-fill" viewBox="0 0 16 16">
    <circle cx="8" cy="8" r="6.5" fill="currentColor"></circle>
    <path d="M5.5 5.5l5 5M10.5 5.5l-5 5" fill="none" stroke="#1A0808" stroke-width="1.6" stroke-linecap="round"></path>
  </symbol>

  

  <symbol id="myika-24-read" viewBox="0 0 24 24">
    <g fill="none" stroke="currentColor" stroke-width="2" stroke-linecap="round" stroke-linejoin="round">
      <path d="M2.5 12s3-6 9.5-6 9.5 6 9.5 6-3 6-9.5 6-9.5-6-9.5-6z"></path>
      <circle cx="12" cy="12" r="2.5"></circle>
    </g>
  </symbol>

  <symbol id="myika-24-write" viewBox="0 0 24 24">
    <g fill="none" stroke="currentColor" stroke-width="2" stroke-linecap="round" stroke-linejoin="round">
      <path d="M4 20l3.5-1L20 6.5a2 2 0 0 0-2.8-2.8L4.5 16 4 20z"></path>
      <path d="M15 6l3 3"></path>
    </g>
  </symbol>

  <symbol id="myika-24-exec" viewBox="0 0 24 24">
    <g fill="none" stroke="currentColor" stroke-width="2" stroke-linecap="round" stroke-linejoin="round">
      <path d="M6 4.5v15L20 12z"></path>
    </g>
  </symbol>
  <symbol id="myika-24-exec-fill" viewBox="0 0 24 24">
    <path fill="currentColor" stroke="currentColor" stroke-width="2" stroke-linejoin="round" d="M6.5 5v14L20 12z"></path>
  </symbol>

  <symbol id="myika-24-search" viewBox="0 0 24 24">
    <g fill="none" stroke="currentColor" stroke-width="2" stroke-linecap="round" stroke-linejoin="round">
      <circle cx="10.5" cy="10.5" r="6.5"></circle>
      <path d="M15.2 15.2L20 20"></path>
    </g>
  </symbol>

  <symbol id="myika-24-asset" viewBox="0 0 24 24">
    <g fill="none" stroke="currentColor" stroke-width="2" stroke-linecap="round" stroke-linejoin="round">
      <path d="M12 2.5L20.5 7v10L12 21.5 3.5 17V7z"></path>
      <path d="M3.7 7.2L12 11.5l8.3-4.3M12 11.5V21.5"></path>
    </g>
  </symbol>

  <symbol id="myika-24-code" viewBox="0 0 24 24">
    <g fill="none" stroke="currentColor" stroke-width="2" stroke-linecap="round" stroke-linejoin="round">
      <path d="M8 6.5L2.5 12 8 17.5"></path>
      <path d="M16 6.5L21.5 12 16 17.5"></path>
      <path d="M14 5l-4 14"></path>
    </g>
  </symbol>

  <symbol id="myika-24-plugin" viewBox="0 0 24 24">
    <g fill="none" stroke="currentColor" stroke-width="2" stroke-linecap="round" stroke-linejoin="round">
      <path d="M9 2v4M15 2v4"></path>
      <path d="M5.5 6h13v5a6.5 6.5 0 0 1-6.5 6.5h0A6.5 6.5 0 0 1 5.5 11z"></path>
      <path d="M12 17.5V22"></path>
    </g>
  </symbol>

  <symbol id="myika-24-settings" viewBox="0 0 24 24">
    <g fill="none" stroke="currentColor" stroke-width="2" stroke-linecap="round" stroke-linejoin="round">
      <path d="M12 2.2l1.7 2.3 2.9.3.6 2.9 2.3 1.7-1.4 2.5v2.9l-2.4 1.4-.6 2.9-2.9.3L12 21.8l-1.7-2.3-2.9-.3-.6-2.9L4.5 14.7 5.9 12.2V9.3l2.4-1.4.6-2.9 2.9-.3z"></path>
      <circle cx="12" cy="12" r="3"></circle>
    </g>
  </symbol>

  <symbol id="myika-24-chat" viewBox="0 0 24 24">
    <g fill="none" stroke="currentColor" stroke-width="2" stroke-linecap="round" stroke-linejoin="round">
      <path d="M3 9.5A5.5 5.5 0 0 1 8.5 4h7A5.5 5.5 0 0 1 21 9.5V13a5.5 5.5 0 0 1-5.5 5.5H10L4.5 22V9.5z"></path>
      <path d="M8 11h8"></path>
    </g>
  </symbol>

  <symbol id="myika-24-plan" viewBox="0 0 24 24">
    <g fill="none" stroke="currentColor" stroke-width="2" stroke-linecap="round" stroke-linejoin="round">
      <path d="M3.5 6l2 2 3-3.5"></path>
      <path d="M12 6h9"></path>
      <path d="M3.5 12.5h3"></path>
      <path d="M12 12.5h9"></path>
      <path d="M3.5 19h3"></path>
      <path d="M12 19h9"></path>
    </g>
  </symbol>

  <symbol id="myika-24-diff" viewBox="0 0 24 24">
    <g fill="none" stroke="currentColor" stroke-width="2" stroke-linecap="round" stroke-linejoin="round">
      <path d="M3 6.5h3"></path><path d="M9 6.5h10"></path>
      <path d="M3 12h3"></path><path d="M9 12h6"></path>
      <path d="M3 17.5h3"></path><path d="M9 17.5h11"></path>
      <path d="M4.5 10v4"></path>
    </g>
  </symbol>

  <symbol id="myika-24-folder" viewBox="0 0 24 24">
    <g fill="none" stroke="currentColor" stroke-width="2" stroke-linecap="round" stroke-linejoin="round">
      <path d="M2.5 7a1.5 1.5 0 0 1 1.5-1.5h5L11 7.5h9a1.5 1.5 0 0 1 1.5 1.5v9a1.5 1.5 0 0 1-1.5 1.5H4a1.5 1.5 0 0 1-1.5-1.5z"></path>
    </g>
  </symbol>

  <symbol id="myika-24-approve" viewBox="0 0 24 24">
    <g fill="none" stroke="currentColor" stroke-width="2" stroke-linecap="round" stroke-linejoin="round">
      <path d="M5 12.5l4.5 4.5L20 6.5"></path>
    </g>
  </symbol>
  <symbol id="myika-24-approve-fill" viewBox="0 0 24 24">
    <circle cx="12" cy="12" r="10" fill="currentColor"></circle>
    <path d="M7.5 12.4l3.3 3.3L17 9" fill="none" stroke="#07120C" stroke-width="2.2" stroke-linecap="round" stroke-linejoin="round"></path>
  </symbol>

  <symbol id="myika-24-deny" viewBox="0 0 24 24">
    <g fill="none" stroke="currentColor" stroke-width="2" stroke-linecap="round" stroke-linejoin="round">
      <path d="M6 6l12 12M18 6L6 18"></path>
    </g>
  </symbol>
  <symbol id="myika-24-deny-fill" viewBox="0 0 24 24">
    <circle cx="12" cy="12" r="10" fill="currentColor"></circle>
    <path d="M8.5 8.5l7 7M15.5 8.5l-7 7" fill="none" stroke="#1A0808" stroke-width="2.2" stroke-linecap="round"></path>
  </symbol>

  
  <symbol id="myika-logo-16" viewBox="0 0 16 16">
    <g fill="none" stroke="currentColor" stroke-width="1.6" stroke-linecap="round" stroke-linejoin="round">
      <path d="M2.5 13V3.5l3 4.5h0M5.5 8L8 11.5"></path>
      <path d="M13.5 13V3.5l-3 4.5M10.5 8L8 11.5"></path>
    </g>
  </symbol>
  <symbol id="myika-logo-32" viewBox="0 0 32 32">
    <g fill="none" stroke="currentColor" stroke-width="2.4" stroke-linecap="round" stroke-linejoin="round">
      <path d="M5 26V6l6 9"></path>
      <path d="M11 15l5 7"></path>
      <path d="M27 26V6l-6 9"></path>
      <path d="M21 15l-5 7"></path>
    </g>
  </symbol>
  
  <symbol id="myika-logo-32-fill" viewBox="0 0 32 32">
    <rect x="2" y="2" width="28" height="28" rx="6" fill="currentColor"></rect>
    <g fill="none" stroke="#07120C" stroke-width="2.4" stroke-linecap="round" stroke-linejoin="round">
      <path d="M7 24V8l5.5 8"></path>
      <path d="M12.5 16L16 20.5"></path>
      <path d="M25 24V8l-5.5 8"></path>
      <path d="M19.5 16L16 20.5"></path>
    </g>
  </symbol>
</svg>